<svg
  width="160"
  height="30"
  viewBox="0 0 160 30"
  fill="none"
  xmlns="http://www.w3.org/2000/svg"
>
  <g clip-path="url(#clip0)">
    <path
      fill-rule="evenodd"
      clip-rule="evenodd"
      d="M42.2083 8.1301V11.003H49.2517L41.9321 21.2024C41.8285 21.3351 41.7537 21.4793 41.6962 21.6293C41.6386 21.7908 41.6099 21.9466 41.6099 22.1081V23.4581H53.602V20.5851H46.2018L53.4926 10.4203C53.5962 10.2704 53.6825 10.1031 53.7458 9.92999C53.8034 9.76269 53.8379 9.57809 53.8379 9.39349V8.1301H42.2083Z"
      fill="#2D3092"
    />
    <path
      fill-rule="evenodd"
      clip-rule="evenodd"
      d="M66.5491 17.5622C66.3535 18.1737 66.0657 18.6929 65.6917 19.1141C65.3177 19.5467 64.8573 19.8698 64.3222 20.089C63.7813 20.314 63.1598 20.4236 62.475 20.4236C61.7787 20.4236 61.1573 20.314 60.6164 20.089C60.0697 19.8698 59.6093 19.5467 59.2353 19.1141C58.8613 18.6929 58.5793 18.1737 58.3779 17.5622C58.1823 16.945 58.0844 16.2527 58.0844 15.4739C58.0844 14.7124 58.1823 14.0201 58.3779 13.4086C58.5793 12.7971 58.8613 12.2779 59.2353 11.8453C59.6093 11.4241 60.0697 11.0953 60.6164 10.8703C61.1573 10.6396 61.7787 10.5242 62.475 10.5242C63.1598 10.5242 63.7813 10.6396 64.3222 10.8703C64.8573 11.0953 65.3177 11.4241 65.6917 11.8453C66.0657 12.2779 66.3535 12.7971 66.5491 13.4086C66.7505 14.0201 66.8541 14.7124 66.8541 15.4739C66.8541 16.2527 66.7505 16.945 66.5491 17.5622ZM69.9614 12.3875C69.5701 11.4357 69.0292 10.6107 68.3215 9.91268C67.6137 9.20888 66.7678 8.65506 65.778 8.25124C64.7825 7.85319 63.6834 7.65128 62.475 7.65128C61.2666 7.65128 60.1675 7.84742 59.172 8.24547C58.1765 8.6493 57.3191 9.20311 56.6171 9.90115C55.9093 10.5992 55.3626 11.4299 54.9713 12.3818C54.5858 13.3336 54.3901 14.3605 54.3901 15.4681C54.3901 16.5758 54.5858 17.6084 54.9713 18.5603C55.3626 19.5179 55.9093 20.3429 56.6171 21.0467C57.3191 21.7505 58.1765 22.2985 59.172 22.7023C60.1675 23.1004 61.2666 23.2965 62.475 23.2965C63.6834 23.2965 64.7825 23.1004 65.778 22.7023C66.7678 22.2985 67.6137 21.7505 68.3215 21.0467C69.0292 20.3429 69.5701 19.5179 69.9614 18.5603C70.347 17.6084 70.5426 16.5758 70.5426 15.4681C70.5426 14.372 70.347 13.3452 69.9614 12.3875Z"
      fill="#2D3092"
    />
    <path
      fill-rule="evenodd"
      clip-rule="evenodd"
      d="M83.7492 17.5622C83.5478 18.1737 83.2601 18.6929 82.886 19.1141C82.512 19.5467 82.0574 19.8698 81.5165 20.089C80.9756 20.314 80.3599 20.4236 79.6751 20.4236C78.9788 20.4236 78.3574 20.314 77.8107 20.089C77.264 19.8698 76.8094 19.5467 76.4354 19.1141C76.0614 18.6929 75.7794 18.1737 75.578 17.5622C75.3766 16.945 75.2788 16.2527 75.2788 15.4739C75.2788 14.7124 75.3766 14.0201 75.578 13.4086C75.7794 12.7971 76.0614 12.2779 76.4354 11.8453C76.8094 11.4241 77.264 11.0953 77.8107 10.8703C78.3574 10.6396 78.9788 10.5242 79.6751 10.5242C80.3599 10.5242 80.9756 10.6396 81.5165 10.8703C82.0574 11.0953 82.512 11.4241 82.886 11.8453C83.2601 12.2779 83.5478 12.7971 83.7492 13.4086C83.9448 14.0201 84.0542 14.7124 84.0542 15.4739C84.0542 16.2527 83.9448 16.945 83.7492 17.5622ZM87.1558 12.3875C86.7702 11.4357 86.2293 10.6107 85.5215 9.91268C84.8137 9.20888 83.9678 8.65506 82.9781 8.25124C81.9826 7.85319 80.8835 7.65128 79.6751 7.65128C78.4667 7.65128 77.3619 7.84742 76.3663 8.24547C75.3766 8.6493 74.5192 9.20311 73.8114 9.90115C73.1036 10.5992 72.557 11.4299 72.1714 12.3818C71.7801 13.3336 71.5845 14.3605 71.5845 15.4681C71.5845 16.5758 71.7801 17.6084 72.1714 18.5603C72.557 19.5179 73.1036 20.3429 73.8114 21.0467C74.5192 21.7505 75.3766 22.2985 76.3663 22.7023C77.3619 23.1004 78.4667 23.2965 79.6751 23.2965C80.8835 23.2965 81.9826 23.1004 82.9781 22.7023C83.9678 22.2985 84.8137 21.7505 85.5215 21.0467C86.2293 20.3429 86.7702 19.5179 87.1558 18.5603C87.5471 17.6084 87.737 16.5758 87.737 15.4681C87.737 14.372 87.5471 13.3452 87.1558 12.3875Z"
      fill="#2D3092"
    />
    <path
      fill-rule="evenodd"
      clip-rule="evenodd"
      d="M99.7119 17.793C99.5105 18.3872 99.2227 18.8949 98.8487 19.2987C98.4747 19.714 98.0201 20.0371 97.4849 20.2563C96.9383 20.4755 96.3226 20.5851 95.6378 20.5851H93.221V11.003H95.6378C96.3226 11.003 96.9383 11.1184 97.4849 11.3376C98.0201 11.5568 98.4747 11.8741 98.8487 12.2837C99.2227 12.6991 99.5105 13.201 99.7119 13.7952C99.9133 14.3894 100.011 15.0528 100.011 15.7912C100.011 16.5296 99.9133 17.1988 99.7119 17.793ZM103.118 12.7337C102.733 11.7991 102.186 10.9857 101.478 10.3107C100.771 9.63001 99.9248 9.09927 98.935 8.70699C97.9395 8.32047 96.8404 8.1301 95.6378 8.1301H89.5957V23.4581H95.6378C96.8404 23.4581 97.9395 23.2677 98.935 22.8869C99.9248 22.5062 100.771 21.9697 101.478 21.289C102.186 20.6025 102.733 19.7948 103.118 18.8602C103.51 17.9199 103.7 16.8988 103.7 15.7912C103.7 14.6893 103.51 13.674 103.118 12.7337Z"
      fill="#2D3092"
    />
    <path
      fill-rule="evenodd"
      clip-rule="evenodd"
      d="M113.62 17.8161L108.337 8.17048C108.24 8.00318 108.148 7.90511 108.044 7.86473C107.946 7.83011 107.802 7.80704 107.624 7.80704H106.093V23.4581H107.912V12.151C107.912 12.001 107.9 11.8395 107.894 11.6607C107.883 11.4818 107.866 11.303 107.848 11.1126L113.2 20.7351C113.378 21.0524 113.631 21.214 113.948 21.214H114.247C114.564 21.214 114.811 21.0524 114.995 20.7351L120.232 11.1472C120.214 11.3261 120.209 11.4991 120.197 11.6722C120.186 11.8395 120.186 12.001 120.186 12.151V23.4581H122.004V7.80704H120.473C120.289 7.80704 120.145 7.83011 120.048 7.86473C119.95 7.90511 119.852 8.00318 119.766 8.17048L114.587 17.8045C114.489 17.9949 114.403 18.1853 114.322 18.3699C114.241 18.5603 114.167 18.7506 114.098 18.9525C114.029 18.7564 113.954 18.5603 113.879 18.3699C113.804 18.1795 113.718 17.9949 113.62 17.8161Z"
      fill="#2D3092"
    />
    <path
      fill-rule="evenodd"
      clip-rule="evenodd"
      d="M130.802 11.3895C130.871 11.1991 130.94 10.9799 131.015 10.7261C131.09 10.478 131.171 10.2069 131.251 9.91269C131.401 10.5011 131.545 10.9857 131.706 11.378L134.111 17.7122H128.403L130.802 11.3895ZM132.304 7.80704H130.204L124.087 23.4581H125.692C125.871 23.4581 126.02 23.4061 126.141 23.3081C126.256 23.21 126.348 23.0888 126.394 22.9619L127.827 19.2179H134.681L136.114 22.9619C136.171 23.1119 136.257 23.2273 136.367 23.3196C136.476 23.4119 136.626 23.4581 136.816 23.4581H138.421L132.304 7.80704Z"
      fill="#2D3092"
    />
    <path
      fill-rule="evenodd"
      clip-rule="evenodd"
      d="M142.558 7.80704H140.487V23.4581H149.17V21.5428H142.558V7.80704Z"
      fill="#2D3092"
    />
    <path
      fill-rule="evenodd"
      clip-rule="evenodd"
      d="M153.388 7.80704H151.317V23.4581H160V21.5428H153.388V7.80704Z"
      fill="#2D3092"
    />
    <path
      fill-rule="evenodd"
      clip-rule="evenodd"
      d="M22.471 5.16501C22.3329 5.15347 22.1603 5.11886 21.9877 5.12462C20.0139 5.21116 18.443 6.48608 18.0057 8.34944C17.5453 10.2993 18.5984 12.3531 20.4628 13.1261C22.3387 13.9107 24.5253 13.253 25.6647 11.5685C26.0157 11.0551 26.1768 10.5762 25.8661 9.94165C25.4691 9.1167 25.8891 8.14176 26.6832 7.7264C27.5234 7.28796 28.4441 7.4668 29.0253 8.18791C29.6007 8.90325 29.5892 9.98781 28.8814 10.582C27.978 11.3435 27.9492 12.555 27.1666 13.3915C27.5694 13.4434 27.9262 13.4607 28.2657 13.403C30.5271 12.9934 31.9255 11.1647 31.7471 8.8571C31.6147 7.06297 30.1819 5.51114 28.3808 5.19385C26.4646 4.85926 24.5886 5.78228 23.783 7.44372C23.6047 7.8187 23.6046 8.14753 23.7945 8.5225C24.2491 9.39938 23.9614 10.3628 23.1328 10.8704C22.3387 11.3608 21.3374 11.205 20.7332 10.4955C20.1002 9.74551 20.1635 8.73019 20.8828 8.01484C21.044 7.85331 21.2454 7.70909 21.3432 7.51872C21.7345 6.75145 22.0913 5.97265 22.471 5.16501ZM32.3052 4.89964C33.3583 6.0938 33.8819 7.38603 34.0373 8.8571C34.3653 11.9838 31.8161 15.174 28.5937 15.6182C27.4773 15.774 26.407 15.6817 25.3425 15.3125C25.049 15.2144 24.6519 15.2029 24.37 15.3067C20.1981 16.8874 15.4968 13.6857 15.6291 9.09939C15.7557 4.78426 20.0312 1.85943 24.2434 3.23819C24.675 3.38242 25.049 3.34204 25.4806 3.24396C26.361 3.05359 27.2587 2.85168 28.1506 2.84014C31.1947 2.78822 34.233 2.81707 37.277 2.8286C37.6798 2.8286 38.0941 2.86899 38.4969 2.93821C40.2117 3.23819 41.19 4.54774 40.7527 6.18033C40.2981 7.8937 39.6881 9.56668 39.1069 11.2512C38.1287 14.0895 37.1447 16.9278 36.1089 19.7488C35.3608 21.7794 33.7669 22.8005 31.5859 22.9563C30.5732 23.0313 29.5604 23.0255 28.5419 23.0255C25.003 23.0371 21.464 23.0486 17.9251 23.0082C17.0274 23.0024 16.1067 22.8986 15.2493 22.6678C13.5863 22.2236 12.47 21.0929 11.7737 19.6046C10.853 17.6258 9.99558 15.624 9.10366 13.6395C7.82044 10.7666 6.54297 7.88793 5.23673 5.02078C4.50017 3.39396 3.29751 2.28633 1.40432 2.00942C1.11085 1.96904 0.817378 1.85943 0.558432 1.72098C0.0635565 1.46714 -0.0860569 1.08063 0.0462935 0.601809C0.190152 0.105684 0.56994 -0.0154631 1.03604 0.0018436C3.51617 0.0999149 5.51294 1.07486 6.64079 3.2555C7.79742 5.4823 8.78141 7.78986 9.81145 10.0801C11.0659 12.8492 12.2916 15.6356 13.523 18.4219C14.2998 20.1641 15.6579 21.0006 17.6201 20.9891C21.8668 20.9718 26.1193 20.9833 30.3718 20.9833C30.671 20.9833 30.976 20.9718 31.2752 20.9545C32.9095 20.8737 33.8647 20.0026 34.3653 18.5431C35.7291 14.5568 37.1159 10.582 38.4912 6.60146C38.9746 5.21693 38.7386 4.88233 37.2482 4.86502C35.7579 4.85349 34.2617 4.85349 32.7656 4.85349C32.6505 4.85349 32.5297 4.87656 32.3052 4.89964Z"
      fill="#2D3092"
    />
    <path
      fill-rule="evenodd"
      clip-rule="evenodd"
      d="M26.3897 27.5828C26.3954 26.2848 27.4657 25.2291 28.7777 25.2291C30.1588 25.2234 31.2176 26.2675 31.2176 27.6347C31.2176 28.9443 30.1358 29.9885 28.7777 29.9885C27.4485 29.9885 26.3839 28.9154 26.3897 27.5828Z"
      fill="#2D3092"
    />
    <path
      fill-rule="evenodd"
      clip-rule="evenodd"
      d="M19.6859 25.2234C20.9806 25.2234 22.0625 26.3079 22.0567 27.5944C22.0567 28.9155 21.0094 29.9827 19.7147 30C18.3451 30.0115 17.223 28.9443 17.2173 27.6232C17.2173 26.2848 18.3049 25.2234 19.6859 25.2234Z"
      fill="#2D3092"
    />
  </g>
  <defs>
    <clipPath id="clip0">
      <rect width="160" height="30" fill="white" />
    </clipPath>
  </defs>
</svg>
